<?xml version="1.0" encoding="utf-8"?>
<!-- Generator: Adobe Illustrator 22.0.1, SVG Export Plug-In . SVG Version: 6.00 Build 0)  -->
<svg version="1.1" id="레이어_1" xmlns="http://www.w3.org/2000/svg" xmlns:xlink="http://www.w3.org/1999/xlink" x="0px"
	 y="0px" viewBox="0 0 1440 128" style="enable-background:new 0 0 1440 128;" xml:space="preserve">
<style type="text/css">
	.st0{fill:#FFFFFF;}
	.st1{opacity:0.5;}
	.st2{fill:none;stroke:#EEEEEE;stroke-linecap:square;}
</style>
<rect class="st0" width="1440" height="128"/>
<g>
	<g class="st1">
		<g transform="translate(979)">
			<g transform="translate(260)">
				<g transform="translate(11)">
					<path class="st2" d="M16,0v128.5 M76,0v128.5 M46,0v128.5 M106,0v128.5 M119,0v128.5 M1,0v128.5 M61,0v128.5 M31,0v128.5 M91,0
						v128.5"/>
				</g>
				<g transform="rotate(90 59 70)">
					<path class="st2" d="M16,0v128.5 M76,0v128.5 M46,0v128.5 M106,0v128.5 M1,0v128.5 M61,0v128.5 M31,0v128.5 M91,0v128.5"/>
				</g>
			</g>
			<g transform="translate(390)">
				<g transform="translate(11)">
					<path class="st2" d="M16,0v128.5 M46,0v128.5 M1,0v128.5 M31,0v128.5"/>
				</g>
				<g transform="rotate(90 59 70)">
					<path class="st2" d="M16,0v128.5 M76,0v128.5 M46,0v128.5 M106,0v128.5 M1,0v128.5 M61,0v128.5 M31,0v128.5 M91,0v128.5"/>
				</g>
			</g>
			<g transform="translate(11)">
				<path class="st2" d="M16,0v128.5 M76,0v128.5 M46,0v128.5 M106,0v128.5 M119,0v128.5 M1,0v128.5 M61,0v128.5 M31,0v128.5 M91,0
					v128.5"/>
			</g>
			<g transform="rotate(90 59 70)">
				<path class="st2" d="M16,0v128.5 M76,0v128.5 M46,0v128.5 M106,0v128.5 M1,0v128.5 M61,0v128.5 M31,0v128.5 M91,0v128.5"/>
			</g>
			<g transform="translate(130)">
				<g transform="translate(11)">
					<path class="st2" d="M16,0v128.5 M76,0v128.5 M46,0v128.5 M106,0v128.5 M119,0v128.5 M1,0v128.5 M61,0v128.5 M31,0v128.5 M91,0
						v128.5"/>
				</g>
				<g transform="rotate(90 59 70)">
					<path class="st2" d="M16,0v128.5 M76,0v128.5 M46,0v128.5 M106,0v128.5 M1,0v128.5 M61,0v128.5 M31,0v128.5 M91,0v128.5"/>
				</g>
			</g>
		</g>
	</g>
	<g class="st1">
		<g transform="translate(459)">
			<g transform="translate(260)">
				<g transform="translate(11)">
					<path class="st2" d="M16,0v128.5 M76,0v128.5 M46,0v128.5 M106,0v128.5 M119,0v128.5 M1,0v128.5 M61,0v128.5 M31,0v128.5 M91,0
						v128.5"/>
				</g>
				<g transform="rotate(90 59 70)">
					<path class="st2" d="M16,0v128.5 M76,0v128.5 M46,0v128.5 M106,0v128.5 M1,0v128.5 M61,0v128.5 M31,0v128.5 M91,0v128.5"/>
				</g>
			</g>
			<g transform="translate(390)">
				<g transform="translate(11)">
					<path class="st2" d="M16,0v128.5 M76,0v128.5 M46,0v128.5 M106,0v128.5 M119,0v128.5 M1,0v128.5 M61,0v128.5 M31,0v128.5 M91,0
						v128.5"/>
				</g>
				<g transform="rotate(90 59 70)">
					<path class="st2" d="M16,0v128.5 M76,0v128.5 M46,0v128.5 M106,0v128.5 M1,0v128.5 M61,0v128.5 M31,0v128.5 M91,0v128.5"/>
				</g>
			</g>
			<g transform="translate(11)">
				<path class="st2" d="M16,0v128.5 M76,0v128.5 M46,0v128.5 M106,0v128.5 M119,0v128.5 M1,0v128.5 M61,0v128.5 M31,0v128.5 M91,0
					v128.5"/>
			</g>
			<g transform="rotate(90 59 70)">
				<path class="st2" d="M16,0v128.5 M76,0v128.5 M46,0v128.5 M106,0v128.5 M1,0v128.5 M61,0v128.5 M31,0v128.5 M91,0v128.5"/>
			</g>
			<g transform="translate(130)">
				<g transform="translate(11)">
					<path class="st2" d="M16,0v128.5 M76,0v128.5 M46,0v128.5 M106,0v128.5 M119,0v128.5 M1,0v128.5 M61,0v128.5 M31,0v128.5 M91,0
						v128.5"/>
				</g>
				<g transform="rotate(90 59 70)">
					<path class="st2" d="M16,0v128.5 M76,0v128.5 M46,0v128.5 M106,0v128.5 M1,0v128.5 M61,0v128.5 M31,0v128.5 M91,0v128.5"/>
				</g>
			</g>
		</g>
	</g>
	<g class="st1">
		<g transform="translate(199)">
			<g transform="translate(11)">
				<path class="st2" d="M16,0v128.5 M76,0v128.5 M46,0v128.5 M106,0v128.5 M119,0v128.5 M1,0v128.5 M61,0v128.5 M31,0v128.5 M91,0
					v128.5"/>
			</g>
			<g transform="rotate(90 59 70)">
				<path class="st2" d="M16,0v128.5 M76,0v128.5 M46,0v128.5 M106,0v128.5 M1,0v128.5 M61,0v128.5 M31,0v128.5 M91,0v128.5"/>
			</g>
		</g>
	</g>
	<g class="st1">
		<g transform="translate(329)">
			<g transform="translate(11)">
				<path class="st2" d="M16,0v128.5 M76,0v128.5 M46,0v128.5 M106,0v128.5 M119,0v128.5 M1,0v128.5 M61,0v128.5 M31,0v128.5 M91,0
					v128.5"/>
			</g>
			<g transform="rotate(90 59 70)">
				<path class="st2" d="M16,0v128.5 M76,0v128.5 M46,0v128.5 M106,0v128.5 M1,0v128.5 M61,0v128.5 M31,0v128.5 M91,0v128.5"/>
			</g>
		</g>
	</g>
	<g class="st1">
		<g transform="translate(-61)">
			<g transform="translate(11)">
				<path class="st2" d="M76,0v128.5 M106,0v128.5 M119,0v128.5 M61,0v128.5 M91,0v128.5"/>
			</g>
			<g transform="rotate(90 59 70)">
				<path class="st2" d="M16,0v128.5 M76,0v128.5 M46,0v128.5 M106,0v128.5 M1,0v128.5 M61,0v128.5 M31,0v128.5 M91,0v128.5"/>
			</g>
		</g>
	</g>
	<g class="st1">
		<g transform="translate(69)">
			<g transform="translate(11)">
				<path class="st2" d="M16,0v128.5 M76,0v128.5 M46,0v128.5 M106,0v128.5 M119,0v128.5 M1,0v128.5 M61,0v128.5 M31,0v128.5 M91,0
					v128.5"/>
			</g>
			<g transform="rotate(90 59 70)">
				<path class="st2" d="M16,0v128.5 M76,0v128.5 M46,0v128.5 M106,0v128.5 M1,0v128.5 M61,0v128.5 M31,0v128.5 M91,0v128.5"/>
			</g>
		</g>
	</g>
</g>
</svg>
