<svg xmlns="http://www.w3.org/2000/svg" xmlns:xlink="http://www.w3.org/1999/xlink" width="32" height="59" viewBox="0 0 32 59">
  <defs>
    <rect id="logo-home-a" width="5.02" height="1.863" x="5.647" y="29.189"/>
    <polygon id="logo-home-b" points="6.902 57.137 9.412 59 4.392 59"/>
    <polygon id="logo-home-c" points="6.902 0 9.412 1.863 4.392 1.863"/>
  </defs>
  <g fill="none" fill-rule="evenodd">
    <path fill="#BA2A2A" d="M8.15686275,29.1798762 L20.6003096,29.1798762 L20.6003096,31.0622291 L8.15686275,31.0622291 L8.15686275,59 L5.64705882,59 L5.64705882,31.0622291 L0.105572755,31.0622291 L0.105572755,29.1798762 L5.64705882,29.1798762 L5.64705882,0.621052632 L8.15686275,0.621052632 L8.15686275,29.1798762 Z M8.15686275,29.1798762 L5.64705882,29.1798762 L5.64705882,31.0622291 L8.15686275,31.0622291 L8.15686275,29.1798762 Z"/>
    <ellipse cx="20.078" cy="29.811" stroke="#16203C" stroke-width="2" rx="10.922" ry="16.389"/>
    <use fill="#FFF" xlink:href="#logo-home-a"/>
    <rect width="4.02" height="1" x="6.147" y="29.689" stroke="#FFF"/>
    <use fill="#BA2A2A" xlink:href="#logo-home-b"/>
    <path stroke="#BA2A2A" d="M7.89939167,58.5 L9.11373341,59.401469 L9.41176471,58.5 L7.89939167,58.5 Z M5.9045299,58.5 L4.39215686,58.5 L4.69018816,59.401469 L5.9045299,58.5 Z M6.90196078,57.7595552 L7.19999208,57.5383111 L6.60392949,57.5383111 L6.90196078,57.7595552 Z"/>
    <g transform="matrix(1 0 0 -1 0 1.863)">
      <use fill="#BA2A2A" xlink:href="#logo-home-c"/>
      <path stroke="#BA2A2A" d="M7.89939167,1.36315789 L9.11373341,2.26462688 L9.41176471,1.36315789 L7.89939167,1.36315789 Z M5.9045299,1.36315789 L4.39215686,1.36315789 L4.69018816,2.26462688 L5.9045299,1.36315789 Z M6.90196078,0.622713107 L7.19999208,0.401468987 L6.60392949,0.401468987 L6.90196078,0.622713107 Z"/>
    </g>
    <rect width="9" height="8" x="23" y="25" fill="#FFF"/>
  </g>
</svg>
